<?xml version="1.0" encoding="utf-8"?>
<!-- Generator: Adobe Illustrator 18.0.0, SVG Export Plug-In . SVG Version: 6.00 Build 0)  -->
<!DOCTYPE svg PUBLIC "-//W3C//DTD SVG 1.1//EN" "http://www.w3.org/Graphics/SVG/1.1/DTD/svg11.dtd">
<svg version="1.1" id="レイヤー_1" xmlns="http://www.w3.org/2000/svg" xmlns:xlink="http://www.w3.org/1999/xlink" x="0px"
	 y="0px" viewBox="0 0 100 100" enable-background="new 0 0 100 100" xml:space="preserve">
<circle fill="#F40009" cx="50" cy="50.1" r="50"/>
<path fill="none" stroke="#FFFFFF" stroke-width="6" stroke-linejoin="round" stroke-miterlimit="10" d="M52.3,22.8
	c7.6,0,14.2,3.4,18,7.5c3.4,3.6,3.6,7.9,0.8,10.8c-2.1,2.3-5.9,2-8.3,0.2c-3.1-2.4-6.5-3.8-10.6-3.8c-6.9,0-12.6,5.6-12.6,12.6
	s5.6,12.6,12.6,12.6c4,0,7.5-1.4,10.6-3.8c2.3-1.8,6.1-2.1,8.3,0.2c2.8,3,2.6,7.2-0.8,10.8c-3.8,4.1-10.4,7.5-18,7.5
	C37.2,77.2,25,65,25,50C25,35,37.2,22.8,52.3,22.8z"/>
</svg>
